<svg class="fill-primary" width="24" height="24" viewBox="0 0 24 20.491" xmlns="http://www.w3.org/2000/svg" xmlns:xlink="http://www.w3.org/1999/xlink"><defs><path id="a" d="M.008 0H24v20.491H.008Z"/></defs><g fill="none" fill-rule="evenodd"><mask id="b" fill="#fff"><use xlink:href="#a"/></mask><g/><path d="M24 14.035a1.544 1.544 0 0 1-3.086.038l-4.9-2.353a3.164 3.164 0 0 1-1.379.998l.62 4.777a1.542 1.542 0 0 1-.518 2.996 1.544 1.544 0 0 1-.873-2.817l-.62-4.777a3.157 3.157 0 0 1-2.858-3.143v-.009l-2.847-.657a2.522 2.522 0 0 1-2.982 1.175l-1.662 2.464a1.534 1.534 0 0 1 .193.747 1.544 1.544 0 1 1-1.357-1.532l1.663-2.464a2.515 2.515 0 0 1-.587-1.618c0-1.053.645-1.955 1.561-2.334l-.282-2.539a1.544 1.544 0 1 1 1.395-.154l.282 2.54a2.524 2.524 0 0 1 2.09 2.348l2.848.657a3.159 3.159 0 0 1 4.524-1.297l3.237-3.237a1.542 1.542 0 0 1-.076-.476 1.544 1.544 0 1 1 1.544 1.544 1.538 1.538 0 0 1-.476-.076l-3.237 3.237a3.144 3.144 0 0 1 .485 1.681 3.164 3.164 0 0 1-.079.7l4.899 2.353a1.534 1.534 0 0 1 .934-.316c.853 0 1.544.691 1.544 1.544" fill="#000000" mask="url(#b)"/></g></svg>