<svg width="24" height="24" viewBox="0 0 28.408 24" xmlns="http://www.w3.org/2000/svg"><g fill="none" fill-rule="evenodd"><g/><path d="M28.408 20.816a3.083 3.083 0 1 1-6.168-.004v-.003a3.086 3.086 0 0 1 2.27-2.973v-4.733h-9.577v4.712a3.086 3.086 0 0 1 2.355 2.997v.004a3.084 3.084 0 1 1-6.168-.004c0-1.422.962-2.618 2.271-2.975v-4.734H3.813v4.713a3.084 3.084 0 0 1 2.355 2.996v.001a3.085 3.085 0 1 1-3.897-2.976v-4.734c0-.85.691-1.542 1.542-1.542h9.578V6.174a3.084 3.084 0 1 1 3.897-2.976v.003a3.085 3.085 0 0 1-2.355 2.995v5.365h9.577c.851 0 1.542.692 1.542 1.542v4.711a3.086 3.086 0 0 1 2.356 2.998v.004Z" fill="#000000" fill-rule="nonzero"/></g></svg>